<?xml version="1.0" encoding="utf-8"?>
<!-- Generator: Adobe Illustrator 27.9.0, SVG Export Plug-In . SVG Version: 6.00 Build 0)  -->
<svg version="1.1" xmlns="http://www.w3.org/2000/svg" xmlns:xlink="http://www.w3.org/1999/xlink" x="0px" y="0px"
	 viewBox="0 0 1080 1080" style="enable-background:new 0 0 1080 1080;" xml:space="preserve">
<style type="text/css">
	.st0{fill:#FFF000;stroke:#FFF000;stroke-width:10;stroke-miterlimit:10;}
	.st1{fill:#FFF000;}
	.st2{display:none;}
</style>
<g id="Layer_1">
</g>
<g id="Layer_2">
</g>
<g id="Layer_3">
	<g>
		<path class="st0" d="M1037.78,345.92c18.9-32.71,26.84-63.84,9.35-84.69c-13.1-15.61-36.95-21.75-65.65-22.07
			C885.43,98.4,723.76,6,540.5,6C245.86,6,7,244.86,7,539.5c0,93.51,24.07,181.4,66.33,257.82c-8.93,34.1,3.66,58.16,43.18,66.03
			C214,990.8,367.65,1073,540.5,1073c294.64,0,533.5-238.86,533.5-533.5C1074,471.21,1061.16,405.93,1037.78,345.92z"/>
		<polygon points="390,252 499,323.05 499,378 682,269 796,337 796.04,463 718,520 796.04,565 796.04,711 682,783 499,670 499,706 
			390,774 280,706 280,323.05 		"/>
		<polygon class="st1" points="407.9,393.08 468.29,352.38 468.29,688 407.9,730 		"/>
		<polygon class="st1" points="370.72,393.08 310.33,352.38 310.33,688 370.72,730 		"/>
		<polygon class="st1" points="322,333 390,289 457,333 390,378 		"/>
		<path class="st1" d="M402.64,347.29"/>
		<polygon class="st1" points="682,305.74 499,415 499,513 682,625 752,581 558,465 752,344 		"/>
		<polygon class="st1" points="765,371 620,465 682,500 765,446 		"/>
		<polygon class="st1" points="765,605 694,648 694,737 765,694.12 		"/>
		<polygon class="st1" points="499,552 668,648 668,737 499,633 		"/>
		<polygon class="st1" points="534,705 594,672 604,692 544,726 		"/>
		<path d="M276,573.41c0,0-258.48,209.9-165.36,262.53c93.11,52.63,417.19-116.99,417.19-116.99s54.2-29.08,123.37-70.61
			c72.87-43.75,162.34-101.31,222.57-153.23c136.83-111.4,318.82-335.59-94.12-206.04L750,296c0,0,242.39-100,297.13-34.77
			S907.55,492.44,907.55,492.44S636.13,731.27,300.2,838.57c-339.98,99.2-263.06-87.52-24.2-269.69V573.41z"/>
	</g>
</g>
<g id="Layer_4" class="st2">
</g>
</svg>
